<?xml version="1.0" encoding="utf-8"?>
<!-- Generator: Adobe Illustrator 16.0.0, SVG Export Plug-In . SVG Version: 6.00 Build 0)  -->
<!DOCTYPE svg PUBLIC "-//W3C//DTD SVG 1.1//EN" "http://www.w3.org/Graphics/SVG/1.1/DTD/svg11.dtd">
<svg version="1.1" id="Layer_1" xmlns="http://www.w3.org/2000/svg" xmlns:xlink="http://www.w3.org/1999/xlink" x="0px" y="0px"
	 width="124.833px" height="34.167px" viewBox="0 0 124.833 34.167" enable-background="new 0 0 124.833 34.167"
	 xml:space="preserve">
<g>
	<path fill="#FFFFFF" d="M109.193,33.037c1.513-0.041,3.274-0.084,4.998-0.084c1.806,0,3.569,0.043,5.879,0.084v-1.092h-2.353
		c-1.176,0-2.016,0-2.016-1.387v-9.869c0-2.521,2.353-3.486,3.066-3.486c1.469,0,1.469,1.007,2.771,1.007
		c1.176,0,1.975-1.007,1.975-2.142c0-1.513-1.346-2.227-2.395-2.227c-2.562,0-4.326,2.688-5.377,4.326h-0.084v-3.779
		c0-0.42-0.125-0.546-0.377-0.546c-0.38,0-2.06,1.092-5.125,2.395v0.63c0.631,0.336,2.184,0.588,2.184,1.89v11.802
		c0,1.387-0.84,1.387-2.016,1.387h-1.134v1.091H109.193z M95.083,20.1c0.504-3.023,2.268-4.914,4.83-4.914
		c2.352,0,3.653,1.723,3.653,3.864c0,0.504-0.127,1.05-1.176,1.05H95.083z M106.756,21.445l0.379-0.252
		c0.041-0.252,0.041-0.504,0.041-0.757c-0.041-4.451-3.694-6.594-7.098-6.594c-2.938,0-8.483,2.437-8.483,10.667
		c0,2.689,1.344,9.156,8.022,9.156c3.443,0,5.838-2.184,7.771-4.746l-0.589-0.588c-1.555,1.555-3.36,2.814-5.67,2.814
		c-3.36,0-5.922-3.275-6.174-7.268c-0.084-1.428-0.084-2.058,0-2.436h11.801V21.445z M71.351,30.558c0,1.387-0.84,1.387-2.017,1.387
		h-0.754v1.092c1.512-0.041,3.022-0.084,4.535-0.084c1.512,0,2.981,0.084,4.452,0.084v-1.092h-0.756c-1.177,0-2.101,0-2.101-1.387
		V18.126c1.386-0.924,3.527-2.017,4.871-2.017c2.396,0,3.863,1.176,3.863,3.569v10.878c0,1.387-0.84,1.387-2.016,1.387h-0.756v1.093
		c1.512-0.043,3.023-0.084,4.535-0.084c1.514,0,2.981,0.084,4.453,0.084v-1.093h-0.756c-1.177,0-2.101,0-2.101-1.387V19.722
		c0-3.275-1.261-5.88-4.83-5.88c-2.813,0-4.873,1.428-7.267,3.15v-2.73c0-0.336-0.127-0.42-0.252-0.42
		c-2.018,0.882-3.737,1.428-5.545,2.017v0.798c1.976,0.798,2.437,1.217,2.437,2.77v11.131H71.351z M48.629,30.558
		c0,1.387-0.84,1.387-2.016,1.387h-0.756v1.092c1.512-0.041,3.024-0.084,4.536-0.084c1.512,0,2.982,0.084,4.452,0.084v-1.092h-0.756
		c-1.176,0-2.1,0-2.1-1.387V18.126c1.386-0.924,3.528-2.017,4.872-2.017c2.394,0,3.864,1.176,3.864,3.569v10.878
		c0,1.387-0.84,1.387-2.016,1.387h-0.756v1.093c1.512-0.043,3.024-0.084,4.536-0.084s2.983,0.084,4.452,0.084v-1.093h-0.756
		c-1.177,0-2.101,0-2.101-1.387V19.722c0-3.275-1.259-5.88-4.83-5.88c-2.814,0-4.872,1.428-7.266,3.15v-2.73
		c0-0.336-0.126-0.42-0.252-0.42c-2.016,0.882-3.738,1.428-5.544,2.017v0.798c1.974,0.798,2.436,1.217,2.436,2.77V30.558z
		 M43.505,30.684c-0.378,0.463-1.008,0.715-1.554,0.715c-0.924,0-1.512-0.673-1.512-2.396V17.371c0-2.311-3.234-3.528-5.124-3.528
		c-1.596,0-2.31,0.588-3.78,1.344c-2.94,1.513-4.83,2.562-4.83,4.788c0,0.294,0.126,0.841,0.756,0.841
		c1.008,0,2.352-0.589,2.352-1.766c0.084-1.889,1.344-2.938,3.192-2.938c2.688,0,4.074,1.26,4.074,3.611v2.772
		c-9.072,3.106-10.794,3.737-10.962,7.098c0,2.227,1.848,4.074,4.536,4.074c2.604,0,4.494-1.303,6.468-3.108
		c0.084,1.513,0.882,3.108,2.604,3.108c1.68,0,2.982-1.176,4.158-2.269L43.505,30.684z M37.08,29.255
		c-1.386,1.219-2.646,2.438-4.62,2.438c-1.638,0-2.982-1.387-2.982-3.023c0-3.15,5.46-4.117,7.602-4.957V29.255z M0.833,33.037
		c1.806-0.041,3.654-0.084,5.502-0.084c1.974,0,3.948,0.084,5.922,0.084c7.434,0,11.298-3.402,11.298-7.896
		c0-5.923-6.3-8.021-9.45-7.854v-0.084c3.234-0.756,6.762-2.772,6.762-6.678c0-5.923-6.678-6.805-9.786-6.805
		c-1.512,0-3.066,0.084-5.46,0.084H4.319c-1.134,0-2.31-0.084-3.486-0.084v1.093C3.06,4.855,4.655,4.897,4.655,7.836V29.13
		c0,2.395-1.722,2.939-3.822,2.813V33.037z M8.771,5.149c0.63-0.042,1.218-0.084,1.764-0.084c3.36,0,6.216,0.714,6.216,5.544
		c0,5.292-2.982,6.384-6.384,6.384H8.771V5.149z M8.771,18.335h2.52c4.158,0,7.896,1.345,7.896,7.351
		c0,2.604-1.638,6.007-6.636,6.007c-3.78,0-3.78-1.555-3.78-3.443V18.335z"/>
	<path fill="#FFFFFF" d="M80.89,14.792C80.691,10.728,79.181,0.71,69.118,0.71C58.48,0.71,57.4,11.422,57.322,14.792h1.024
		c0.071-3.263,2.153-11.425,10.771-11.425c8.323,0,10.409,7.613,10.649,11.425H80.89z"/>
</g>
</svg>
