<?xml version="1.0" encoding="utf-8"?>
<!-- Generator: Adobe Illustrator 15.0.0, SVG Export Plug-In . SVG Version: 6.00 Build 0)  -->
<!DOCTYPE svg PUBLIC "-//W3C//DTD SVG 1.1//EN" "http://www.w3.org/Graphics/SVG/1.1/DTD/svg11.dtd">
<svg version="1.1" id="Layer_1" xmlns="http://www.w3.org/2000/svg" xmlns:xlink="http://www.w3.org/1999/xlink" x="0px" y="0px"
     width="124.833px" height="34.167px" viewBox="0 0 124.833 34.167" enable-background="new 0 0 124.833 34.167"
     xml:space="preserve">
<g>
    <path d="M109.193,33.037c1.512-0.042,3.275-0.084,4.998-0.084c1.806,0,3.569,0.042,5.879,0.084v-1.092h-2.352
        c-1.176,0-2.016,0-2.016-1.387v-9.869c0-2.521,2.352-3.486,3.066-3.486c1.469,0,1.469,1.008,2.771,1.008
        c1.176,0,1.975-1.008,1.975-2.142c0-1.513-1.345-2.227-2.395-2.227c-2.562,0-4.326,2.688-5.376,4.326h-0.084v-3.78
        c0-0.42-0.126-0.546-0.378-0.546c-0.379,0-2.059,1.092-5.124,2.395v0.63c0.63,0.336,2.184,0.588,2.184,1.89v11.802
        c0,1.387-0.84,1.387-2.016,1.387h-1.134V33.037z M95.082,20.1c0.504-3.023,2.268-4.914,4.83-4.914c2.352,0,3.654,1.723,3.654,3.864
        c0,0.504-0.127,1.05-1.176,1.05H95.082z M106.757,21.445l0.378-0.252c0.042-0.252,0.042-0.504,0.042-0.757
        c-0.042-4.451-3.695-6.594-7.098-6.594c-2.939,0-8.484,2.437-8.484,10.668c0,2.688,1.344,9.156,8.022,9.156
        c3.444,0,5.838-2.184,7.771-4.746l-0.589-0.588c-1.554,1.554-3.36,2.814-5.67,2.814c-3.36,0-5.922-3.276-6.174-7.267
        c-0.084-1.428-0.084-2.058,0-2.436H106.757z M71.351,30.558c0,1.387-0.84,1.387-2.016,1.387H68.58v1.092
        c1.512-0.042,3.023-0.084,4.536-0.084c1.512,0,2.981,0.084,4.452,0.084v-1.092h-0.756c-1.177,0-2.101,0-2.101-1.387V18.126
        c1.386-0.924,3.528-2.016,4.872-2.016c2.395,0,3.863,1.176,3.863,3.569v10.878c0,1.387-0.84,1.387-2.016,1.387h-0.756v1.092
        c1.512-0.042,3.024-0.084,4.536-0.084c1.513,0,2.981,0.084,4.452,0.084v-1.092h-0.756c-1.176,0-2.1,0-2.1-1.387V19.722
        c0-3.275-1.261-5.88-4.83-5.88c-2.814,0-4.873,1.428-7.267,3.15v-2.73c0-0.336-0.126-0.42-0.252-0.42
        c-2.017,0.882-3.737,1.428-5.544,2.017v0.798c1.975,0.798,2.436,1.218,2.436,2.771V30.558z M48.629,30.558
        c0,1.387-0.84,1.387-2.016,1.387h-0.756v1.092c1.512-0.042,3.024-0.084,4.536-0.084c1.512,0,2.982,0.084,4.452,0.084v-1.092h-0.756
        c-1.176,0-2.1,0-2.1-1.387V18.126c1.386-0.924,3.528-2.016,4.872-2.016c2.394,0,3.864,1.176,3.864,3.569v10.878
        c0,1.387-0.84,1.387-2.016,1.387h-0.756v1.092c1.512-0.042,3.024-0.084,4.536-0.084c1.512,0,2.983,0.084,4.452,0.084v-1.092h-0.756
        c-1.176,0-2.1,0-2.1-1.387V19.722c0-3.275-1.26-5.88-4.83-5.88c-2.814,0-4.872,1.428-7.266,3.15v-2.73
        c0-0.336-0.126-0.42-0.252-0.42c-2.016,0.882-3.738,1.428-5.544,2.017v0.798c1.974,0.798,2.436,1.218,2.436,2.771V30.558z
         M43.505,30.684c-0.378,0.463-1.008,0.715-1.554,0.715c-0.924,0-1.512-0.673-1.512-2.395V17.371c0-2.311-3.234-3.528-5.124-3.528
        c-1.596,0-2.31,0.588-3.78,1.344c-2.94,1.513-4.83,2.562-4.83,4.788c0,0.294,0.126,0.841,0.756,0.841
        c1.008,0,2.352-0.589,2.352-1.765c0.084-1.89,1.344-2.939,3.192-2.939c2.688,0,4.074,1.26,4.074,3.611v2.772
        c-9.072,3.107-10.794,3.738-10.962,7.098c0,2.227,1.848,4.074,4.536,4.074c2.604,0,4.494-1.302,6.468-3.108
        c0.084,1.513,0.882,3.108,2.604,3.108c1.68,0,2.982-1.176,4.158-2.268L43.505,30.684z M37.08,29.256
        c-1.386,1.218-2.646,2.437-4.62,2.437c-1.638,0-2.982-1.387-2.982-3.024c0-3.15,5.46-4.116,7.602-4.956V29.256z M0.833,33.037
        c1.806-0.042,3.654-0.084,5.502-0.084c1.974,0,3.948,0.084,5.922,0.084c7.434,0,11.298-3.402,11.298-7.896
        c0-5.922-6.3-8.021-9.45-7.854v-0.084c3.234-0.756,6.762-2.772,6.762-6.678c0-5.923-6.678-6.805-9.786-6.805
        c-1.512,0-3.066,0.084-5.46,0.084H4.319c-1.134,0-2.31-0.084-3.486-0.084v1.093C3.06,4.855,4.655,4.897,4.655,7.836V29.13
        c0,2.395-1.722,2.94-3.822,2.814V33.037z M8.771,5.149c0.63-0.042,1.218-0.084,1.764-0.084c3.36,0,6.216,0.714,6.216,5.544
        c0,5.292-2.982,6.384-6.384,6.384H8.771V5.149z M8.771,18.336h2.52c4.158,0,7.896,1.344,7.896,7.35
        c0,2.604-1.638,6.007-6.636,6.007c-3.78,0-3.78-1.555-3.78-3.444V18.336z"/>
    <path d="M80.89,14.792c-0.199-4.064-1.709-14.082-11.772-14.082c-10.638,0-11.718,10.712-11.796,14.082h1.024
        c0.071-3.263,2.153-11.425,10.772-11.425c8.323,0,10.409,7.613,10.649,11.425H80.89z"/>
</g>
</svg>
