<?xml version="1.0" encoding="utf-8"?>
<!-- Generator: Adobe Illustrator 16.0.0, SVG Export Plug-In . SVG Version: 6.00 Build 0)  -->
<!DOCTYPE svg PUBLIC "-//W3C//DTD SVG 1.1//EN" "http://www.w3.org/Graphics/SVG/1.1/DTD/svg11.dtd">
<svg version="1.1" id="Layer_1" xmlns="http://www.w3.org/2000/svg" xmlns:xlink="http://www.w3.org/1999/xlink" x="0px" y="0px"
	 width="140px" height="138px" viewBox="0 0 140 138" enable-background="new 0 0 140 138" xml:space="preserve">
<g>
	<path d="M129.539,130.752c15.996-18.13,0.432-50.288-9.972-66.196c0,0-1.37-2.249-3.689-5.807
		c-3.329-4.785-20.409-28.812-35.256-40.198c-0.372-0.419-0.908-0.911-1.66-1.497c-7.411-5.779-6.681-13.579-6.681-13.579
		l-0.088,0.157V3.475h-2.321H67.55v0.157l-0.088-0.157c0,0,0.73,7.8-6.681,13.579c-0.752,0.586-1.287,1.078-1.66,1.497
		C44.274,29.937,27.194,53.964,23.865,58.749c-2.319,3.558-3.689,5.807-3.689,5.807c-10.404,15.908-25.968,48.066-9.972,66.196
		c0,0,6.064,7.751,11.138,2.313c1.87-2.003,0.993-4.713-1.508-6.109c-2.977-1.663-5.218-3.251-5.589-3.671
		c-16.694-18.924,19.926-71.787,42.037-91.297c5.535-4.885,10.098-8.731,13.589-8.731c3.491,0,8.055,3.847,13.59,8.731
		c22.111,19.51,58.732,72.373,42.037,91.297c-0.371,0.42-2.611,2.008-5.589,3.671c-2.501,1.396-3.378,4.106-1.508,6.109
		C123.475,138.503,129.539,130.752,129.539,130.752 M216.775,92.301c0,14.707-6.448,17.874-20.363,17.874
		c-12.784,0-13.123-2.602-13.123-9.503v-27.15h11.992C206.82,73.521,216.775,78.272,216.775,92.301 M187.927,69.448h-4.638v-23.87
		c0-8.259,1.583-9.164,12.218-9.164c12.557,0,18.78,1.81,18.78,16.517C214.287,63.566,209.535,69.448,187.927,69.448
		 M202.068,71.598v-0.227c10.974-1.131,25.115-6.222,25.115-19.458c0-11.2-9.955-19.572-31.337-19.572h-36.541v4.073
		c11.765,0,12.67,0.905,12.67,7.014v56.566c0,6.674-1.244,9.729-12.67,9.729v4.073h36.768c24.775,0,33.373-9.503,33.373-22.061
		C229.446,80.874,216.436,73.182,202.068,71.598 M273.226,90.491c0,11.539-6.109,19.231-15.272,19.231
		c-3.395,0-7.128-2.827-7.128-7.354c0-10.068,14.594-15.046,22.4-17.648V90.491z M291.893,98.636h-2.715
		c-0.228,2.376-0.453,9.956-4.413,9.956c-2.716,0-2.716-2.488-2.716-8.032V70.693c0-9.843-10.633-12.559-19.57-12.559
		c-9.956,0-19.911,5.204-19.911,13.463c0,3.733,2.941,7.579,6.561,7.579c4.073,0,7.241-2.828,7.241-6.9
		c0-3.62-2.263-6.109-5.657-7.127c1.471-2.941,7.58-3.847,10.861-3.847c9.729,0,11.652,5.204,11.652,13.803v5.996
		c-12.105,4.411-33.034,7.579-33.034,21.721c0,7.58,6.448,12.557,13.689,12.557c8.937,0,15.272-5.204,19.232-12.67h0.226
		c0.227,6.901,1.131,12.67,9.277,12.67C290.76,115.379,291.78,104.745,291.893,98.636 M330.245,113.796h23.418v-4.073
		c-3.847,0-7.693-0.565-7.693-4.411V78.272c0-13.803-6.109-20.138-15.387-20.138c-9.05,0-13.574,6.788-17.082,16.065h-0.227V58.135
		L295.4,60.059v3.96c8.599,0.226,9.39,0.904,9.39,7.692v30.998c0,6.335-2.488,7.014-8.598,7.014v4.073h24.21v-4.073
		c-6.224,0-6.788-1.131-6.788-6.787V90.264c0-9.503,4.073-26.472,15.273-26.472c4.638,0,8.258,4.072,8.258,9.955v29.301
		c0,5.883-1.471,6.675-6.9,6.675V113.796z M393.145,113.796h23.418v-4.073c-3.846,0-7.693-0.565-7.693-4.411V78.272
		c0-13.803-6.108-20.138-15.386-20.138c-9.05,0-13.575,6.788-17.082,16.065h-0.228V58.135l-17.873,1.924v3.96
		c8.598,0.226,9.389,0.904,9.389,7.692v30.998c0,6.335-2.488,7.014-8.598,7.014v4.073h24.211v-4.073
		c-6.223,0-6.788-1.131-6.788-6.787V90.264c0-9.503,4.071-26.472,15.272-26.472c4.639,0,8.259,4.072,8.259,9.955v29.301
		c0,5.883-1.472,6.675-6.901,6.675V113.796z M433.872,83.25c0-12.784,5.657-21.268,14.028-21.268
		c8.598,0,12.332,6.447,12.332,14.366c0,5.657-2.263,6.901-7.467,6.901H433.872z M433.872,87.549h37.221
		c0-14.254-8.032-29.414-23.192-29.414c-15.159,0-24.888,15.387-24.888,30.206c0,15.16,10.521,27.038,26.02,27.038
		c10.86,0,17.422-5.43,22.514-14.593l-3.281-1.584c-4.751,6.335-8.485,11.426-16.404,11.426
		C438.511,110.628,433.872,100.107,433.872,87.549 M525.168,68.317c0-6.448-4.638-10.183-10.182-10.183
		c-10.295,0-16.178,14.028-18.327,21.834h-0.226V58.135l-19.233,1.245v3.959c9.616,0.566,10.408,1.131,10.408,11.54v28.282
		c0,5.657-1.583,6.562-10.294,6.562v4.073h30.432v-4.073c-10.635,0-11.312-0.679-11.312-9.051c0-12.557,6.561-39.143,17.309-39.143
		c0.792,0,1.357,0.226,1.357,0.792c0,1.245-3.959,2.148-3.959,7.24c0,3.96,3.054,6.562,6.9,6.562
		C522.792,76.123,525.168,72.729,525.168,68.317"/>
</g>
<g>
	<path d="M262.646,684.242c25.688,0,38.416,3.703,38.416,33.788c0,21.754-9.72,33.788-53.922,33.788h-9.488v-48.831
		C237.652,686.094,240.892,684.242,262.646,684.242 M237.652,760.149h24.531c23.604,0,43.97,9.72,43.97,38.416
		c0,30.085-13.191,36.565-41.656,36.565c-26.15,0-26.845-5.323-26.845-19.439V760.149z M263.34,675.911h-74.75v8.331
		c24.068,0,25.92,1.852,25.92,14.349v115.712c0,13.653-2.546,19.901-25.92,19.901v8.332h75.213c50.682,0,68.27-19.439,68.27-45.128
		c0-22.217-26.613-37.953-56.005-41.192v-0.464c22.448-2.313,51.376-12.729,51.376-39.805
		C327.444,693.036,307.079,675.911,263.34,675.911 M361.6,652.802c0,0-2.793-4.582-7.518-11.833
		c-6.783-9.749-41.588-58.714-71.845-81.914c-0.758-0.853-1.85-1.855-3.381-3.05c-15.103-11.779-13.616-27.672-13.616-27.672
		l-0.179,0.32v-0.32h-4.73h-4.73v0.32l-0.18-0.32c0,0,1.486,15.893-13.615,27.672c-1.532,1.194-2.623,2.197-3.382,3.05
		c-30.256,23.2-65.061,72.165-71.845,81.914c-4.724,7.251-7.517,11.833-7.517,11.833c-21.201,32.419-52.916,97.947-20.319,134.894
		c0,0,12.356,15.793,22.696,4.713c3.811-4.082,2.024-9.604-3.073-12.449c-6.068-3.39-10.633-6.625-11.389-7.48
		c-34.02-38.562,40.605-146.286,85.662-186.043c11.278-9.953,20.577-17.791,27.691-17.791c7.114,0,16.414,7.838,27.693,17.791
		c45.057,39.757,119.682,147.48,85.661,186.043c-0.756,0.855-5.321,4.091-11.388,7.48c-5.098,2.846-6.885,8.367-3.073,12.449
		c10.34,11.08,22.696-4.713,22.696-4.713C414.516,750.749,382.801,685.221,361.6,652.802"/>
</g>
<g>
	<path d="M382.194,1465.08c32.596-36.946,0.881-102.476-20.32-134.895c0,0-2.793-4.582-7.518-11.833
		c-6.783-9.749-41.589-58.714-71.844-81.913c-0.76-0.853-1.852-1.855-3.382-3.051c-15.103-11.778-13.615-27.67-13.615-27.67
		l-0.181,0.319v-0.319h-4.729h-4.729v0.319l-0.18-0.319c0,0,1.486,15.892-13.616,27.67c-1.531,1.195-2.623,2.198-3.381,3.051
		c-30.257,23.199-65.061,72.164-71.845,81.913c-4.725,7.251-7.517,11.833-7.517,11.833c-21.201,32.419-52.917,97.948-20.32,134.895
		c0,0,12.356,15.793,22.696,4.713c3.812-4.082,2.024-9.604-3.073-12.449c-6.067-3.389-10.632-6.625-11.389-7.48
		c-34.02-38.562,40.605-146.285,85.662-186.043c11.279-9.952,20.578-17.791,27.692-17.791s16.413,7.839,27.692,17.791
		c45.057,39.758,119.682,147.48,85.662,186.043c-0.758,0.855-5.322,4.092-11.389,7.48c-5.098,2.845-6.886,8.367-3.074,12.449
		C369.836,1480.873,382.194,1465.08,382.194,1465.08"/>
</g>
</svg>
